<mxfile host="app.diagrams.net" modified="2024-01-16T21:16:52.234Z" agent="Mozilla/5.0 (Macintosh; Intel Mac OS X 10_15_7) AppleWebKit/537.36 (KHTML, like Gecko) Chrome/120.0.0.0 Safari/537.36" etag="Wn61wIMnvuc9zzLVEwBw" version="22.1.18" type="device" pages="2">
  <diagram name="ls-on-aws-eks" id="TpZ5J-uieHqMcHOrVDC3">
    <mxGraphModel dx="1128" dy="777" grid="1" gridSize="10" guides="1" tooltips="1" connect="1" arrows="1" fold="1" page="1" pageScale="1" pageWidth="850" pageHeight="1100" math="0" shadow="0">
      <root>
        <mxCell id="0" />
        <mxCell id="1" parent="0" />
        <mxCell id="CIlqBqHNMjFFj4c3_xY8-1" value="&lt;b&gt;&lt;font style=&quot;font-size: 14px;&quot;&gt;AWS Cloud&lt;/font&gt;&lt;/b&gt;" style="points=[[0,0],[0.25,0],[0.5,0],[0.75,0],[1,0],[1,0.25],[1,0.5],[1,0.75],[1,1],[0.75,1],[0.5,1],[0.25,1],[0,1],[0,0.75],[0,0.5],[0,0.25]];outlineConnect=0;gradientColor=none;html=1;whiteSpace=wrap;fontSize=12;fontStyle=0;container=1;pointerEvents=0;collapsible=0;recursiveResize=0;shape=mxgraph.aws4.group;grIcon=mxgraph.aws4.group_aws_cloud_alt;strokeColor=#232F3E;fillColor=none;verticalAlign=top;align=left;spacingLeft=30;fontColor=#232F3E;dashed=0;" parent="1" vertex="1">
          <mxGeometry x="30" y="90" width="730" height="700" as="geometry" />
        </mxCell>
        <mxCell id="CIlqBqHNMjFFj4c3_xY8-2" value="&lt;font style=&quot;font-size: 16px;&quot;&gt;EKS Cluster&lt;/font&gt;" style="fillColor=none;strokeColor=#5A6C86;dashed=1;verticalAlign=top;fontStyle=0;fontColor=#5A6C86;whiteSpace=wrap;html=1;" parent="CIlqBqHNMjFFj4c3_xY8-1" vertex="1">
          <mxGeometry x="30" y="40" width="690" height="650" as="geometry" />
        </mxCell>
        <mxCell id="CIlqBqHNMjFFj4c3_xY8-3" value="&lt;font style=&quot;font-size: 14px;&quot;&gt;EKS Namespace - ls0&lt;/font&gt;" style="fillColor=#dae8fc;strokeColor=#6c8ebf;dashed=0;verticalAlign=top;fontStyle=0;whiteSpace=wrap;html=1;" parent="CIlqBqHNMjFFj4c3_xY8-1" vertex="1">
          <mxGeometry x="70" y="80" width="640" height="220" as="geometry" />
        </mxCell>
        <mxCell id="CIlqBqHNMjFFj4c3_xY8-4" value="&lt;font style=&quot;font-size: 14px;&quot;&gt;EKS on Fargate&lt;/font&gt;" style="sketch=0;points=[[0,0,0],[0.25,0,0],[0.5,0,0],[0.75,0,0],[1,0,0],[0,1,0],[0.25,1,0],[0.5,1,0],[0.75,1,0],[1,1,0],[0,0.25,0],[0,0.5,0],[0,0.75,0],[1,0.25,0],[1,0.5,0],[1,0.75,0]];outlineConnect=0;fontColor=#232F3E;fillColor=#ED7100;strokeColor=#ffffff;dashed=0;verticalLabelPosition=bottom;verticalAlign=top;align=center;html=1;fontSize=12;fontStyle=0;aspect=fixed;shape=mxgraph.aws4.resourceIcon;resIcon=mxgraph.aws4.fargate;" parent="CIlqBqHNMjFFj4c3_xY8-1" vertex="1">
          <mxGeometry x="82" y="40" width="78" height="78" as="geometry" />
        </mxCell>
        <mxCell id="-8W0-LoTiDIAhBHI-oRQ-4" style="edgeStyle=orthogonalEdgeStyle;rounded=1;orthogonalLoop=1;jettySize=auto;html=1;curved=0;" parent="CIlqBqHNMjFFj4c3_xY8-1" source="CIlqBqHNMjFFj4c3_xY8-5" target="-8W0-LoTiDIAhBHI-oRQ-3" edge="1">
          <mxGeometry relative="1" as="geometry">
            <Array as="points">
              <mxPoint x="640" y="156" />
            </Array>
          </mxGeometry>
        </mxCell>
        <mxCell id="CIlqBqHNMjFFj4c3_xY8-5" value="LocalStack Pod" style="sketch=0;outlineConnect=0;fontColor=#232F3E;gradientColor=none;fillColor=#ED7100;strokeColor=none;dashed=0;verticalLabelPosition=bottom;verticalAlign=top;align=center;html=1;fontSize=12;fontStyle=0;aspect=fixed;pointerEvents=1;shape=mxgraph.aws4.container_3;" parent="CIlqBqHNMjFFj4c3_xY8-1" vertex="1">
          <mxGeometry x="610" y="199.5" width="48" height="31" as="geometry" />
        </mxCell>
        <mxCell id="CIlqBqHNMjFFj4c3_xY8-7" style="edgeStyle=orthogonalEdgeStyle;rounded=0;orthogonalLoop=1;jettySize=auto;html=1;" parent="CIlqBqHNMjFFj4c3_xY8-1" source="CIlqBqHNMjFFj4c3_xY8-6" target="CIlqBqHNMjFFj4c3_xY8-5" edge="1">
          <mxGeometry relative="1" as="geometry" />
        </mxCell>
        <mxCell id="CIlqBqHNMjFFj4c3_xY8-6" value="Dev Pod" style="sketch=0;outlineConnect=0;fontColor=#232F3E;gradientColor=none;fillColor=#ED7100;strokeColor=none;dashed=0;verticalLabelPosition=bottom;verticalAlign=top;align=center;html=1;fontSize=12;fontStyle=0;aspect=fixed;pointerEvents=1;shape=mxgraph.aws4.container_3;" parent="CIlqBqHNMjFFj4c3_xY8-1" vertex="1">
          <mxGeometry x="200" y="199.5" width="48" height="31" as="geometry" />
        </mxCell>
        <mxCell id="CIlqBqHNMjFFj4c3_xY8-8" value="&lt;font style=&quot;font-size: 15px;&quot;&gt;Deploy to LS&lt;br&gt;Run tests&lt;/font&gt;" style="text;html=1;align=center;verticalAlign=middle;resizable=0;points=[];autosize=1;strokeColor=none;fillColor=none;" parent="CIlqBqHNMjFFj4c3_xY8-1" vertex="1">
          <mxGeometry x="340" y="220" width="110" height="50" as="geometry" />
        </mxCell>
        <mxCell id="-8W0-LoTiDIAhBHI-oRQ-3" value="Other Mock APIs" style="sketch=0;outlineConnect=0;fontColor=#232F3E;gradientColor=none;fillColor=#ED7100;strokeColor=none;dashed=0;verticalLabelPosition=bottom;verticalAlign=top;align=center;html=1;fontSize=12;fontStyle=0;aspect=fixed;pointerEvents=1;shape=mxgraph.aws4.container_3;" parent="CIlqBqHNMjFFj4c3_xY8-1" vertex="1">
          <mxGeometry x="500" y="140" width="48" height="31" as="geometry" />
        </mxCell>
        <mxCell id="-8W0-LoTiDIAhBHI-oRQ-5" value="&lt;font style=&quot;font-size: 14px;&quot;&gt;1&lt;/font&gt;" style="text;html=1;align=center;verticalAlign=middle;resizable=0;points=[];autosize=1;strokeColor=#6c8ebf;fillColor=#dae8fc;strokeWidth=4;rounded=1;glass=0;shadow=0;" parent="CIlqBqHNMjFFj4c3_xY8-1" vertex="1">
          <mxGeometry x="10" y="40" width="30" height="30" as="geometry" />
        </mxCell>
        <mxCell id="-8W0-LoTiDIAhBHI-oRQ-6" value="&lt;font style=&quot;font-size: 14px;&quot;&gt;2&lt;/font&gt;" style="text;html=1;align=center;verticalAlign=middle;resizable=0;points=[];autosize=1;strokeColor=#6c8ebf;fillColor=#dae8fc;strokeWidth=4;rounded=1;glass=0;shadow=0;" parent="CIlqBqHNMjFFj4c3_xY8-1" vertex="1">
          <mxGeometry x="180" y="40" width="30" height="30" as="geometry" />
        </mxCell>
        <mxCell id="-8W0-LoTiDIAhBHI-oRQ-7" value="&lt;font style=&quot;font-size: 14px;&quot;&gt;3&lt;/font&gt;" style="text;html=1;align=center;verticalAlign=middle;resizable=0;points=[];autosize=1;strokeColor=#6c8ebf;fillColor=#dae8fc;strokeWidth=4;rounded=1;glass=0;shadow=0;" parent="CIlqBqHNMjFFj4c3_xY8-1" vertex="1">
          <mxGeometry x="248" y="80" width="30" height="30" as="geometry" />
        </mxCell>
        <mxCell id="-8W0-LoTiDIAhBHI-oRQ-8" value="&lt;font style=&quot;font-size: 14px;&quot;&gt;4&lt;/font&gt;" style="text;html=1;align=center;verticalAlign=middle;resizable=0;points=[];autosize=1;strokeColor=#6c8ebf;fillColor=#dae8fc;strokeWidth=4;rounded=1;glass=0;shadow=0;" parent="CIlqBqHNMjFFj4c3_xY8-1" vertex="1">
          <mxGeometry x="160" y="199.5" width="30" height="30" as="geometry" />
        </mxCell>
        <mxCell id="-8W0-LoTiDIAhBHI-oRQ-9" value="&lt;font style=&quot;font-size: 14px;&quot;&gt;5&lt;/font&gt;" style="text;html=1;align=center;verticalAlign=middle;resizable=0;points=[];autosize=1;strokeColor=#6c8ebf;fillColor=#dae8fc;strokeWidth=4;rounded=1;glass=0;shadow=0;" parent="CIlqBqHNMjFFj4c3_xY8-1" vertex="1">
          <mxGeometry x="670" y="171" width="30" height="30" as="geometry" />
        </mxCell>
        <mxCell id="-8W0-LoTiDIAhBHI-oRQ-10" value="&lt;font style=&quot;font-size: 14px;&quot;&gt;6&lt;/font&gt;" style="text;html=1;align=center;verticalAlign=middle;resizable=0;points=[];autosize=1;strokeColor=#6c8ebf;fillColor=#dae8fc;strokeWidth=4;rounded=1;glass=0;shadow=0;" parent="CIlqBqHNMjFFj4c3_xY8-1" vertex="1">
          <mxGeometry x="460" y="140" width="30" height="30" as="geometry" />
        </mxCell>
        <mxCell id="-8W0-LoTiDIAhBHI-oRQ-11" value="&lt;font style=&quot;font-size: 14px;&quot;&gt;7&lt;/font&gt;" style="text;html=1;align=center;verticalAlign=middle;resizable=0;points=[];autosize=1;strokeColor=#6c8ebf;fillColor=#dae8fc;strokeWidth=4;rounded=1;glass=0;shadow=0;" parent="CIlqBqHNMjFFj4c3_xY8-1" vertex="1">
          <mxGeometry x="380" y="270" width="30" height="30" as="geometry" />
        </mxCell>
        <mxCell id="6KlicJI3OUPLph20View-2" value="&lt;font style=&quot;font-size: 14px;&quot;&gt;EKS Namespace - ls1&lt;/font&gt;" style="fillColor=#dae8fc;strokeColor=#6c8ebf;dashed=0;verticalAlign=top;fontStyle=0;whiteSpace=wrap;html=1;" parent="CIlqBqHNMjFFj4c3_xY8-1" vertex="1">
          <mxGeometry x="70" y="310" width="640" height="220" as="geometry" />
        </mxCell>
        <mxCell id="6KlicJI3OUPLph20View-4" value="LocalStack Pod" style="sketch=0;outlineConnect=0;fontColor=#232F3E;gradientColor=none;fillColor=#ED7100;strokeColor=none;dashed=0;verticalLabelPosition=bottom;verticalAlign=top;align=center;html=1;fontSize=12;fontStyle=0;aspect=fixed;pointerEvents=1;shape=mxgraph.aws4.container_3;" parent="CIlqBqHNMjFFj4c3_xY8-1" vertex="1">
          <mxGeometry x="610" y="429.5" width="48" height="31" as="geometry" />
        </mxCell>
        <mxCell id="6KlicJI3OUPLph20View-5" style="edgeStyle=orthogonalEdgeStyle;rounded=0;orthogonalLoop=1;jettySize=auto;html=1;" parent="CIlqBqHNMjFFj4c3_xY8-1" source="6KlicJI3OUPLph20View-6" target="6KlicJI3OUPLph20View-4" edge="1">
          <mxGeometry relative="1" as="geometry" />
        </mxCell>
        <mxCell id="6KlicJI3OUPLph20View-6" value="Dev Pod" style="sketch=0;outlineConnect=0;fontColor=#232F3E;gradientColor=none;fillColor=#ED7100;strokeColor=none;dashed=0;verticalLabelPosition=bottom;verticalAlign=top;align=center;html=1;fontSize=12;fontStyle=0;aspect=fixed;pointerEvents=1;shape=mxgraph.aws4.container_3;" parent="CIlqBqHNMjFFj4c3_xY8-1" vertex="1">
          <mxGeometry x="200" y="429.5" width="48" height="31" as="geometry" />
        </mxCell>
        <mxCell id="6KlicJI3OUPLph20View-7" value="&lt;font style=&quot;font-size: 15px;&quot;&gt;Deploy to LS&lt;br&gt;Run tests&lt;/font&gt;" style="text;html=1;align=center;verticalAlign=middle;resizable=0;points=[];autosize=1;strokeColor=none;fillColor=none;" parent="CIlqBqHNMjFFj4c3_xY8-1" vertex="1">
          <mxGeometry x="340" y="450" width="110" height="50" as="geometry" />
        </mxCell>
        <mxCell id="6KlicJI3OUPLph20View-8" value="Other Mock APIs" style="sketch=0;outlineConnect=0;fontColor=#232F3E;gradientColor=none;fillColor=#ED7100;strokeColor=none;dashed=0;verticalLabelPosition=bottom;verticalAlign=top;align=center;html=1;fontSize=12;fontStyle=0;aspect=fixed;pointerEvents=1;shape=mxgraph.aws4.container_3;" parent="CIlqBqHNMjFFj4c3_xY8-1" vertex="1">
          <mxGeometry x="500" y="370" width="48" height="31" as="geometry" />
        </mxCell>
        <mxCell id="6KlicJI3OUPLph20View-3" style="edgeStyle=orthogonalEdgeStyle;rounded=1;orthogonalLoop=1;jettySize=auto;html=1;curved=0;" parent="CIlqBqHNMjFFj4c3_xY8-1" source="6KlicJI3OUPLph20View-4" target="6KlicJI3OUPLph20View-8" edge="1">
          <mxGeometry relative="1" as="geometry">
            <Array as="points">
              <mxPoint x="640" y="386" />
            </Array>
          </mxGeometry>
        </mxCell>
        <mxCell id="6KlicJI3OUPLph20View-9" value="&lt;font style=&quot;font-size: 14px;&quot;&gt;3&lt;/font&gt;" style="text;html=1;align=center;verticalAlign=middle;resizable=0;points=[];autosize=1;strokeColor=#6c8ebf;fillColor=#dae8fc;strokeWidth=4;rounded=1;glass=0;shadow=0;" parent="CIlqBqHNMjFFj4c3_xY8-1" vertex="1">
          <mxGeometry x="248" y="310" width="30" height="30" as="geometry" />
        </mxCell>
        <mxCell id="rXZAp84dVsVFI8lByepV-1" value="&lt;font style=&quot;font-size: 14px;&quot;&gt;CoreDNS&lt;/font&gt;" style="fillColor=#f5f5f5;strokeColor=#666666;dashed=0;verticalAlign=top;fontStyle=0;whiteSpace=wrap;html=1;gradientColor=#b3b3b3;" vertex="1" parent="CIlqBqHNMjFFj4c3_xY8-1">
          <mxGeometry x="70" y="550" width="640" height="130" as="geometry" />
        </mxCell>
        <mxCell id="rXZAp84dVsVFI8lByepV-3" style="edgeStyle=orthogonalEdgeStyle;rounded=1;orthogonalLoop=1;jettySize=auto;html=1;curved=0;" edge="1" parent="CIlqBqHNMjFFj4c3_xY8-1" source="rXZAp84dVsVFI8lByepV-2" target="6KlicJI3OUPLph20View-4">
          <mxGeometry relative="1" as="geometry">
            <Array as="points">
              <mxPoint x="590" y="445" />
            </Array>
          </mxGeometry>
        </mxCell>
        <mxCell id="rXZAp84dVsVFI8lByepV-2" value="&lt;font style=&quot;font-size: 14px;&quot;&gt;*.localstack1:53&lt;/font&gt;" style="sketch=0;outlineConnect=0;fontColor=#232F3E;gradientColor=none;fillColor=#8C4FFF;strokeColor=none;dashed=0;verticalLabelPosition=bottom;verticalAlign=top;align=center;html=1;fontSize=12;fontStyle=0;aspect=fixed;pointerEvents=1;shape=mxgraph.aws4.customer_gateway;" vertex="1" parent="CIlqBqHNMjFFj4c3_xY8-1">
          <mxGeometry x="436" y="570" width="78" height="78" as="geometry" />
        </mxCell>
        <mxCell id="rXZAp84dVsVFI8lByepV-5" style="edgeStyle=orthogonalEdgeStyle;rounded=1;orthogonalLoop=1;jettySize=auto;html=1;curved=0;" edge="1" parent="CIlqBqHNMjFFj4c3_xY8-1" source="rXZAp84dVsVFI8lByepV-4" target="CIlqBqHNMjFFj4c3_xY8-5">
          <mxGeometry relative="1" as="geometry">
            <Array as="points">
              <mxPoint x="690" y="215" />
            </Array>
          </mxGeometry>
        </mxCell>
        <mxCell id="rXZAp84dVsVFI8lByepV-4" value="&lt;font style=&quot;font-size: 14px;&quot;&gt;*.localstack0:53&lt;/font&gt;" style="sketch=0;outlineConnect=0;fontColor=#232F3E;gradientColor=none;fillColor=#8C4FFF;strokeColor=none;dashed=0;verticalLabelPosition=bottom;verticalAlign=top;align=center;html=1;fontSize=12;fontStyle=0;aspect=fixed;pointerEvents=1;shape=mxgraph.aws4.customer_gateway;" vertex="1" parent="CIlqBqHNMjFFj4c3_xY8-1">
          <mxGeometry x="620" y="570" width="78" height="78" as="geometry" />
        </mxCell>
        <mxCell id="rXZAp84dVsVFI8lByepV-6" value="&lt;span style=&quot;font-size: 14px;&quot;&gt;8&lt;/span&gt;" style="text;html=1;align=center;verticalAlign=middle;resizable=0;points=[];autosize=1;strokeColor=#6c8ebf;fillColor=#dae8fc;strokeWidth=4;rounded=1;glass=0;shadow=0;" vertex="1" parent="CIlqBqHNMjFFj4c3_xY8-1">
          <mxGeometry x="375" y="594" width="30" height="30" as="geometry" />
        </mxCell>
        <mxCell id="-8W0-LoTiDIAhBHI-oRQ-12" value="&lt;ol style=&quot;font-size: 16px;&quot;&gt;&lt;li&gt;AWS Account&lt;/li&gt;&lt;li&gt;&lt;span style=&quot;background-color: initial;&quot;&gt;EKS on Fargate&lt;/span&gt;&lt;/li&gt;&lt;li&gt;&lt;span style=&quot;background-color: initial;&quot;&gt;Unique K8S namespace per pipeline&lt;/span&gt;&lt;/li&gt;&lt;li&gt;Dev pod has all the CI IaC tools&lt;/li&gt;&lt;li&gt;LocalStack pod emulates AWS services&amp;nbsp;&lt;/li&gt;&lt;li&gt;Other Mock APIs&lt;/li&gt;&lt;li&gt;Dev pod deploys solutions to LocalStack&lt;br&gt;and runs component and integration tests&amp;nbsp;&lt;/li&gt;&lt;li&gt;CoreDNS routes localstack subdomains to&lt;br&gt;the LocalStack Pod for name resolution&amp;nbsp;&lt;/li&gt;&lt;/ol&gt;" style="text;html=1;align=left;verticalAlign=middle;resizable=0;points=[];autosize=1;strokeColor=#666666;fillColor=#f5f5f5;fontColor=#333333;" parent="1" vertex="1">
          <mxGeometry x="400" y="790" width="360" height="240" as="geometry" />
        </mxCell>
      </root>
    </mxGraphModel>
  </diagram>
  <diagram name="ls-on-eksany" id="OGi1rOTuzcbHO-Er-p5b">
    <mxGraphModel dx="1128" dy="777" grid="1" gridSize="10" guides="1" tooltips="1" connect="1" arrows="1" fold="1" page="1" pageScale="1" pageWidth="850" pageHeight="1100" math="0" shadow="0">
      <root>
        <mxCell id="my6OJB6mrk7cIAj7XGim-0" />
        <mxCell id="my6OJB6mrk7cIAj7XGim-1" parent="my6OJB6mrk7cIAj7XGim-0" />
        <mxCell id="aU5kZHHdetHg3MHmaUpP-0" value="Engineer Laptop" style="fillColor=none;strokeColor=#5A6C86;verticalAlign=top;fontStyle=1;fontColor=#5A6C86;whiteSpace=wrap;html=1;align=left;fontSize=14;" parent="my6OJB6mrk7cIAj7XGim-1" vertex="1">
          <mxGeometry x="20" y="98" width="740" height="532" as="geometry" />
        </mxCell>
        <mxCell id="aU5kZHHdetHg3MHmaUpP-1" value="Docker" style="fillColor=none;strokeColor=#5A6C86;verticalAlign=top;fontStyle=1;fontColor=#5A6C86;whiteSpace=wrap;html=1;align=left;fontSize=14;" parent="my6OJB6mrk7cIAj7XGim-1" vertex="1">
          <mxGeometry x="30" y="128" width="720" height="492" as="geometry" />
        </mxCell>
        <mxCell id="my6OJB6mrk7cIAj7XGim-19" value="&lt;ol style=&quot;font-size: 16px;&quot;&gt;&lt;li&gt;&lt;span style=&quot;background-color: initial;&quot;&gt;Engineer&#39;s laptop&lt;/span&gt;&lt;/li&gt;&lt;li&gt;&lt;span style=&quot;background-color: initial;&quot;&gt;EKS Anywhere on Docker&lt;/span&gt;&lt;br&gt;&lt;/li&gt;&lt;li&gt;&lt;span style=&quot;background-color: initial;&quot;&gt;Unique K8S namespace per pipeline&lt;/span&gt;&lt;/li&gt;&lt;li&gt;Dev pod has all the CI IaC tools&lt;/li&gt;&lt;li&gt;LocalStack pod emulates AWS services&amp;nbsp;&lt;/li&gt;&lt;li&gt;Other Mock APIs&lt;/li&gt;&lt;li&gt;Dev pod deploys solutions to LocalStack&lt;br&gt;and runs component and integration tests&lt;/li&gt;&lt;li&gt;CoreDNS routes localstack subdomains to&lt;br style=&quot;border-color: var(--border-color);&quot;&gt;the LocalStack Pod for name resolution&lt;br&gt;&lt;/li&gt;&lt;/ol&gt;" style="text;html=1;align=left;verticalAlign=middle;resizable=0;points=[];autosize=1;strokeColor=#666666;fillColor=#f5f5f5;fontColor=#333333;container=0;" parent="my6OJB6mrk7cIAj7XGim-1" vertex="1">
          <mxGeometry x="400" y="630" width="360" height="240" as="geometry" />
        </mxCell>
        <mxCell id="my6OJB6mrk7cIAj7XGim-3" value="&lt;font style=&quot;font-size: 16px;&quot;&gt;EKS Cluster&lt;/font&gt;" style="fillColor=none;strokeColor=#5A6C86;dashed=1;verticalAlign=top;fontStyle=0;fontColor=#5A6C86;whiteSpace=wrap;html=1;container=0;" parent="my6OJB6mrk7cIAj7XGim-1" vertex="1">
          <mxGeometry x="60" y="158" width="680" height="452" as="geometry" />
        </mxCell>
        <mxCell id="my6OJB6mrk7cIAj7XGim-4" value="&lt;font style=&quot;font-size: 14px;&quot;&gt;EKS Namespace - ls0&lt;/font&gt;" style="fillColor=#dae8fc;strokeColor=#6c8ebf;dashed=0;verticalAlign=top;fontStyle=0;whiteSpace=wrap;html=1;container=0;" parent="my6OJB6mrk7cIAj7XGim-1" vertex="1">
          <mxGeometry x="90" y="218" width="640" height="220" as="geometry" />
        </mxCell>
        <mxCell id="my6OJB6mrk7cIAj7XGim-5" value="&lt;font style=&quot;font-size: 14px;&quot;&gt;EKS Anywhere&lt;/font&gt;" style="sketch=0;points=[[0,0,0],[0.25,0,0],[0.5,0,0],[0.75,0,0],[1,0,0],[0,1,0],[0.25,1,0],[0.5,1,0],[0.75,1,0],[1,1,0],[0,0.25,0],[0,0.5,0],[0,0.75,0],[1,0.25,0],[1,0.5,0],[1,0.75,0]];outlineConnect=0;fontColor=#232F3E;fillColor=#ED7100;strokeColor=#ffffff;dashed=0;verticalLabelPosition=bottom;verticalAlign=top;align=center;html=1;fontSize=12;fontStyle=0;aspect=fixed;shape=mxgraph.aws4.resourceIcon;resIcon=mxgraph.aws4.fargate;container=0;" parent="my6OJB6mrk7cIAj7XGim-1" vertex="1">
          <mxGeometry x="102" y="158" width="78" height="78" as="geometry" />
        </mxCell>
        <mxCell id="my6OJB6mrk7cIAj7XGim-6" style="edgeStyle=orthogonalEdgeStyle;rounded=1;orthogonalLoop=1;jettySize=auto;html=1;curved=0;" parent="my6OJB6mrk7cIAj7XGim-1" source="my6OJB6mrk7cIAj7XGim-7" target="my6OJB6mrk7cIAj7XGim-11" edge="1">
          <mxGeometry relative="1" as="geometry">
            <Array as="points">
              <mxPoint x="660" y="294" />
            </Array>
          </mxGeometry>
        </mxCell>
        <mxCell id="my6OJB6mrk7cIAj7XGim-7" value="LocalStack Pod" style="sketch=0;outlineConnect=0;fontColor=#232F3E;gradientColor=none;fillColor=#ED7100;strokeColor=none;dashed=0;verticalLabelPosition=bottom;verticalAlign=top;align=center;html=1;fontSize=12;fontStyle=0;aspect=fixed;pointerEvents=1;shape=mxgraph.aws4.container_3;container=0;" parent="my6OJB6mrk7cIAj7XGim-1" vertex="1">
          <mxGeometry x="630" y="337.5" width="48" height="31" as="geometry" />
        </mxCell>
        <mxCell id="my6OJB6mrk7cIAj7XGim-8" style="edgeStyle=orthogonalEdgeStyle;rounded=0;orthogonalLoop=1;jettySize=auto;html=1;" parent="my6OJB6mrk7cIAj7XGim-1" source="my6OJB6mrk7cIAj7XGim-9" target="my6OJB6mrk7cIAj7XGim-7" edge="1">
          <mxGeometry relative="1" as="geometry" />
        </mxCell>
        <mxCell id="my6OJB6mrk7cIAj7XGim-9" value="Dev Pod" style="sketch=0;outlineConnect=0;fontColor=#232F3E;gradientColor=none;fillColor=#ED7100;strokeColor=none;dashed=0;verticalLabelPosition=bottom;verticalAlign=top;align=center;html=1;fontSize=12;fontStyle=0;aspect=fixed;pointerEvents=1;shape=mxgraph.aws4.container_3;container=0;" parent="my6OJB6mrk7cIAj7XGim-1" vertex="1">
          <mxGeometry x="220" y="337.5" width="48" height="31" as="geometry" />
        </mxCell>
        <mxCell id="my6OJB6mrk7cIAj7XGim-10" value="&lt;font style=&quot;font-size: 15px;&quot;&gt;Deploy to LS&lt;br&gt;Run tests&lt;/font&gt;" style="text;html=1;align=center;verticalAlign=middle;resizable=0;points=[];autosize=1;strokeColor=none;fillColor=none;container=0;" parent="my6OJB6mrk7cIAj7XGim-1" vertex="1">
          <mxGeometry x="360" y="358" width="110" height="50" as="geometry" />
        </mxCell>
        <mxCell id="my6OJB6mrk7cIAj7XGim-11" value="Other Mock APIs" style="sketch=0;outlineConnect=0;fontColor=#232F3E;gradientColor=none;fillColor=#ED7100;strokeColor=none;dashed=0;verticalLabelPosition=bottom;verticalAlign=top;align=center;html=1;fontSize=12;fontStyle=0;aspect=fixed;pointerEvents=1;shape=mxgraph.aws4.container_3;container=0;" parent="my6OJB6mrk7cIAj7XGim-1" vertex="1">
          <mxGeometry x="520" y="278" width="48" height="31" as="geometry" />
        </mxCell>
        <mxCell id="my6OJB6mrk7cIAj7XGim-12" value="&lt;font style=&quot;font-size: 14px;&quot;&gt;1&lt;/font&gt;" style="text;html=1;align=center;verticalAlign=middle;resizable=0;points=[];autosize=1;strokeColor=#6c8ebf;fillColor=#dae8fc;strokeWidth=4;rounded=1;glass=0;shadow=0;container=0;" parent="my6OJB6mrk7cIAj7XGim-1" vertex="1">
          <mxGeometry x="40" y="158" width="30" height="30" as="geometry" />
        </mxCell>
        <mxCell id="my6OJB6mrk7cIAj7XGim-13" value="&lt;font style=&quot;font-size: 14px;&quot;&gt;2&lt;/font&gt;" style="text;html=1;align=center;verticalAlign=middle;resizable=0;points=[];autosize=1;strokeColor=#6c8ebf;fillColor=#dae8fc;strokeWidth=4;rounded=1;glass=0;shadow=0;container=0;" parent="my6OJB6mrk7cIAj7XGim-1" vertex="1">
          <mxGeometry x="200" y="158" width="30" height="30" as="geometry" />
        </mxCell>
        <mxCell id="my6OJB6mrk7cIAj7XGim-14" value="&lt;font style=&quot;font-size: 14px;&quot;&gt;3&lt;/font&gt;" style="text;html=1;align=center;verticalAlign=middle;resizable=0;points=[];autosize=1;strokeColor=#6c8ebf;fillColor=#dae8fc;strokeWidth=4;rounded=1;glass=0;shadow=0;container=0;" parent="my6OJB6mrk7cIAj7XGim-1" vertex="1">
          <mxGeometry x="268" y="218" width="30" height="30" as="geometry" />
        </mxCell>
        <mxCell id="my6OJB6mrk7cIAj7XGim-15" value="&lt;font style=&quot;font-size: 14px;&quot;&gt;4&lt;/font&gt;" style="text;html=1;align=center;verticalAlign=middle;resizable=0;points=[];autosize=1;strokeColor=#6c8ebf;fillColor=#dae8fc;strokeWidth=4;rounded=1;glass=0;shadow=0;container=0;" parent="my6OJB6mrk7cIAj7XGim-1" vertex="1">
          <mxGeometry x="180" y="337.5" width="30" height="30" as="geometry" />
        </mxCell>
        <mxCell id="my6OJB6mrk7cIAj7XGim-16" value="&lt;font style=&quot;font-size: 14px;&quot;&gt;5&lt;/font&gt;" style="text;html=1;align=center;verticalAlign=middle;resizable=0;points=[];autosize=1;strokeColor=#6c8ebf;fillColor=#dae8fc;strokeWidth=4;rounded=1;glass=0;shadow=0;container=0;" parent="my6OJB6mrk7cIAj7XGim-1" vertex="1">
          <mxGeometry x="690" y="300" width="30" height="30" as="geometry" />
        </mxCell>
        <mxCell id="my6OJB6mrk7cIAj7XGim-17" value="&lt;font style=&quot;font-size: 14px;&quot;&gt;6&lt;/font&gt;" style="text;html=1;align=center;verticalAlign=middle;resizable=0;points=[];autosize=1;strokeColor=#6c8ebf;fillColor=#dae8fc;strokeWidth=4;rounded=1;glass=0;shadow=0;container=0;" parent="my6OJB6mrk7cIAj7XGim-1" vertex="1">
          <mxGeometry x="480" y="278" width="30" height="30" as="geometry" />
        </mxCell>
        <mxCell id="my6OJB6mrk7cIAj7XGim-18" value="&lt;font style=&quot;font-size: 14px;&quot;&gt;7&lt;/font&gt;" style="text;html=1;align=center;verticalAlign=middle;resizable=0;points=[];autosize=1;strokeColor=#6c8ebf;fillColor=#dae8fc;strokeWidth=4;rounded=1;glass=0;shadow=0;container=0;" parent="my6OJB6mrk7cIAj7XGim-1" vertex="1">
          <mxGeometry x="400" y="408" width="30" height="30" as="geometry" />
        </mxCell>
        <mxCell id="vnxdWYvxPIOpmt9R0Vbq-0" value="&lt;font style=&quot;font-size: 14px;&quot;&gt;CoreDNS&lt;/font&gt;" style="fillColor=#f5f5f5;strokeColor=#666666;dashed=0;verticalAlign=top;fontStyle=0;whiteSpace=wrap;html=1;gradientColor=#b3b3b3;" vertex="1" parent="my6OJB6mrk7cIAj7XGim-1">
          <mxGeometry x="90" y="460" width="640" height="130" as="geometry" />
        </mxCell>
        <mxCell id="vnxdWYvxPIOpmt9R0Vbq-4" style="edgeStyle=orthogonalEdgeStyle;rounded=1;orthogonalLoop=1;jettySize=auto;html=1;curved=0;" edge="1" parent="my6OJB6mrk7cIAj7XGim-1" source="vnxdWYvxPIOpmt9R0Vbq-2" target="my6OJB6mrk7cIAj7XGim-7">
          <mxGeometry relative="1" as="geometry">
            <Array as="points">
              <mxPoint x="710" y="525" />
              <mxPoint x="710" y="353" />
            </Array>
          </mxGeometry>
        </mxCell>
        <mxCell id="vnxdWYvxPIOpmt9R0Vbq-2" value="&lt;font style=&quot;font-size: 14px;&quot;&gt;*.localstack0:53&lt;/font&gt;" style="sketch=0;outlineConnect=0;fontColor=#232F3E;gradientColor=none;fillColor=#8C4FFF;strokeColor=none;dashed=0;verticalLabelPosition=bottom;verticalAlign=top;align=center;html=1;fontSize=12;fontStyle=0;aspect=fixed;pointerEvents=1;shape=mxgraph.aws4.customer_gateway;" vertex="1" parent="my6OJB6mrk7cIAj7XGim-1">
          <mxGeometry x="600" y="472" width="78" height="78" as="geometry" />
        </mxCell>
        <mxCell id="vnxdWYvxPIOpmt9R0Vbq-3" value="&lt;span style=&quot;font-size: 14px;&quot;&gt;8&lt;/span&gt;" style="text;html=1;align=center;verticalAlign=middle;resizable=0;points=[];autosize=1;strokeColor=#6c8ebf;fillColor=#dae8fc;strokeWidth=4;rounded=1;glass=0;shadow=0;" vertex="1" parent="my6OJB6mrk7cIAj7XGim-1">
          <mxGeometry x="400" y="510" width="30" height="30" as="geometry" />
        </mxCell>
      </root>
    </mxGraphModel>
  </diagram>
</mxfile>
